<?xml version="1.0" encoding="utf-8"?>
<!-- Generator: Adobe Illustrator 23.0.6, SVG Export Plug-In . SVG Version: 6.00 Build 0)  -->
<svg version="1.1" xmlns="http://www.w3.org/2000/svg" xmlns:xlink="http://www.w3.org/1999/xlink" x="0px" y="0px"
	 viewBox="0 0 349 80" style="enable-background:new 0 0 349 80;" xml:space="preserve">
<style type="text/css">
	.st0{fill:#8C827A;}
	.st1{fill:#FFFFFF;}
	.st2{fill:#F5A800;}
</style>
<g id="Layer_1">
	<title>Artboard 1</title>
	<path class="st0" d="M54.4,48.9c-0.3,1.1-0.7,2.3-1.2,3.3c-1.3,0.3-2.6,0.5-3.9,0.6c-5.3,0-7.6-3.7-7.6-7.2c0-4.6,3.4-7.6,8.2-7.6
		c1.3,0.1,2.5,0.2,3.7,0.6c0.2,1.2,0.3,2.1,0.4,3.3L53.5,42c-0.3-2-2.1-3.5-4.1-3.2c-3.5,0-5.4,3.1-5.4,6.4c0,4.1,2.3,6.8,5.5,6.8
		c2.2,0,3.3-1.2,4.4-3.3L54.4,48.9L54.4,48.9z"/>
	<path class="st0" d="M55.3,52.5v-0.6c1.3-0.1,1.5-0.3,1.5-1.7V39.9c0-1.5-0.1-1.5-1.5-1.7v-0.5c1.1-0.1,2.1-0.4,3.1-0.7v13.2
		c0,1.4,0.2,1.6,1.5,1.7v0.6L55.3,52.5z"/>
	<path class="st0" d="M67.8,52.7c-0.4,0-0.7-0.2-1-0.4c-0.3-0.3-0.4-0.6-0.5-1c-0.8,0.6-1.9,1.4-2.5,1.4c-1.4,0-2.6-1.2-2.5-2.6
		c0,0,0,0,0,0c0-1,0.7-1.9,1.7-2.1c1.1-0.3,2.2-0.8,3.3-1.4v-0.4c0-1.6-0.7-2.5-1.8-2.5c-0.4,0-0.7,0.1-0.9,0.4
		c-0.3,0.4-0.5,0.9-0.6,1.4c-0.1,0.3-0.3,0.5-0.6,0.5c-0.5,0-0.9-0.4-0.9-0.9c0-0.3,0.2-0.6,0.7-0.9c1-0.7,2-1.2,3.1-1.5
		c0.6,0,1.2,0.2,1.7,0.6c0.7,0.7,1.1,1.7,1,2.7v4c0,1,0.4,1.3,0.7,1.3c0.3,0,0.5-0.1,0.8-0.3l0.2,0.6L67.8,52.7L67.8,52.7z
		 M66.2,47.3c-0.4,0.2-1.5,0.7-1.9,0.9C63.5,48.6,63,49,63,49.8c-0.1,0.9,0.6,1.6,1.4,1.6c0,0,0,0,0.1,0c0.6-0.1,1.2-0.3,1.7-0.8
		V47.3z"/>
	<path class="st0" d="M70.2,52.5v-0.6c1.3-0.1,1.5-0.3,1.5-1.7v-4.5c0-1.3-0.1-1.4-1.3-1.6v-0.5c1-0.2,2-0.4,3-0.8v7.5
		c0,1.5,0.2,1.6,1.5,1.7v0.6H70.2z M72.4,38.3c0.6,0,1.1,0.5,1.1,1.1c0,0,0,0,0,0c0,0.6-0.5,1.1-1.1,1.1c-0.6,0-1.1-0.5-1.1-1.1
		C71.3,38.8,71.8,38.3,72.4,38.3L72.4,38.3z"/>
	<path class="st0" d="M87.6,52.5v-0.6c1.2-0.1,1.5-0.2,1.5-1.8v-3.6c0-1.5-0.5-2.5-1.9-2.5c-0.9,0.1-1.7,0.5-2.3,1.1
		c0,0.3,0.1,0.6,0.1,0.9v4.2c0,1.4,0.2,1.5,1.3,1.6v0.6h-4.5v-0.6c1.3-0.1,1.5-0.2,1.5-1.7v-3.7c0-1.6-0.6-2.5-1.9-2.5
		c-0.9,0.1-1.7,0.5-2.3,1.1v5.1c0,1.4,0.2,1.5,1.2,1.7v0.6h-4.5v-0.6c1.4-0.1,1.6-0.3,1.6-1.7v-4.5c0-1.4-0.1-1.5-1.3-1.7v-0.5
		c1-0.2,2-0.5,2.9-0.9v1.8c0.4-0.3,0.9-0.7,1.5-1.1c0.5-0.4,1.1-0.6,1.7-0.6c1.1,0,2,0.8,2.4,1.8c0.6-0.5,1.2-0.9,1.7-1.2
		c0.5-0.3,1.1-0.5,1.6-0.5c1.6,0,2.7,1.2,2.7,3.3v4.2c0,1.5,0.2,1.5,1.4,1.7v0.6L87.6,52.5z"/>
	<path class="st0" d="M98.6,45.6c-0.4-1.3-1.1-2.2-2.2-2.2c-0.8,0-1.4,0.6-1.4,1.3c0,0.1,0,0.1,0,0.2c0,1,0.8,1.5,1.8,1.9
		c1.6,0.7,2.7,1.4,2.7,2.9c0,2-1.8,3-3.5,3c-0.9,0-1.7-0.2-2.4-0.7c-0.2-0.8-0.3-1.7-0.4-2.6l0.6-0.1c0.4,1.4,1.3,2.7,2.6,2.7
		c0.8,0,1.5-0.6,1.5-1.5c0,0,0,0,0-0.1c0-1-0.6-1.5-1.7-2c-1.3-0.6-2.6-1.3-2.6-3c0.1-1.7,1.5-2.9,3.2-2.8c0,0,0,0,0.1,0
		c0.6,0,1.3,0.1,1.9,0.4c0.2,0.8,0.4,1.5,0.5,2.3L98.6,45.6L98.6,45.6z"/>
	<path class="st0" d="M118.5,48.9c-0.3,1.1-0.7,2.3-1.2,3.3c-1.3,0.3-2.6,0.5-3.9,0.6c-5.3,0-7.6-3.7-7.6-7.2c0-4.6,3.4-7.6,8.1-7.6
		c1.3,0.1,2.5,0.2,3.7,0.6c0.2,1.2,0.3,2.1,0.4,3.3l-0.6,0.2c-0.3-2-2.1-3.5-4.1-3.2c-3.5,0-5.4,3.1-5.4,6.4c0,4.1,2.3,6.8,5.5,6.8
		c2.2,0,3.3-1.2,4.4-3.3L118.5,48.9L118.5,48.9z"/>
	<path class="st0" d="M124.8,42.7c2.6,0,4.6,2.2,4.6,4.7c0,0,0,0.1,0,0.1c0,3.5-2.5,5.2-4.6,5.2c-2.6,0-4.6-2.1-4.6-4.7
		c0,0,0-0.1,0-0.1C119.9,45.2,122,42.9,124.8,42.7C124.7,42.7,124.7,42.7,124.8,42.7L124.8,42.7z M124.5,43.5
		c-1.3,0-2.4,1.3-2.4,3.8c0,2.7,1.1,4.8,2.9,4.8c1.3,0,2.4-1,2.4-4C127.4,45.5,126.4,43.4,124.5,43.5L124.5,43.5z"/>
	<path class="st0" d="M136.6,52.5v-0.6c1.2-0.1,1.4-0.3,1.4-1.8v-3.6c0-1.5-0.5-2.5-1.9-2.5c-0.9,0.1-1.7,0.5-2.3,1.1v5.1
		c0,1.5,0.1,1.6,1.4,1.7v0.6h-4.6v-0.6c1.4-0.2,1.5-0.3,1.5-1.7v-4.5c0-1.4-0.1-1.5-1.3-1.7v-0.5c1-0.2,2-0.5,2.9-0.9v1.7
		c0.4-0.3,0.9-0.7,1.4-1c0.5-0.4,1.1-0.6,1.8-0.7c1.7,0,2.7,1.2,2.7,3.3v4.2c0,1.5,0.1,1.6,1.4,1.7v0.6L136.6,52.5z"/>
	<path class="st0" d="M143.6,43v-0.5c0-0.6,0.1-1.2,0.2-1.8c0.3-1,0.9-1.9,1.6-2.6c0.6-0.6,1.5-1,2.3-1.1c0.6,0,1.2,0.3,1.7,0.7
		c0.2,0.2,0.2,0.5,0.1,0.8c-0.1,0.2-0.2,0.4-0.4,0.5c-0.1,0.1-0.4,0.1-0.5,0c0,0,0,0,0-0.1c-0.4-0.5-1.1-0.8-1.7-0.8
		c-0.5,0-0.9,0.2-1.1,0.6c-0.4,1.1-0.6,2.2-0.5,3.3V43h2.5c0.1,0.3,0,0.6-0.2,0.9h-2.3v6.2c0,1.6,0.1,1.7,1.8,1.8v0.5h-5v-0.6
		c1.4-0.1,1.5-0.3,1.5-1.7v-6.4h-1.5l-0.1-0.2l0.6-0.6L143.6,43z"/>
	<path class="st0" d="M155.9,50.6c-0.8,1.2-2,1.9-3.4,2.1c-2.6,0-4.1-2.2-4.1-4.6c0-1.4,0.5-2.7,1.4-3.8c0.8-0.9,1.9-1.5,3.1-1.6
		l0,0c1.8,0.1,3.2,1.5,3.2,3.3c0,0.4-0.1,0.6-0.5,0.7s-3,0.3-5.5,0.4c0,3,1.7,4.2,3.2,4.2c0.9,0,1.8-0.4,2.4-1.1L155.9,50.6
		L155.9,50.6z M152.3,43.5c-1,0-1.9,0.9-2.2,2.7c1.2,0,2.4,0,3.6-0.1c0.4,0,0.5-0.1,0.5-0.4C154.3,44.6,153.4,43.6,152.3,43.5
		C152.3,43.5,152.3,43.5,152.3,43.5L152.3,43.5z"/>
	<path class="st0" d="M160.4,45c0.6-1.1,1.5-2.3,2.6-2.3c0.6,0,1.2,0.5,1.2,1.1c0,0.5-0.3,0.9-0.7,1.1c-0.2,0.1-0.4,0.1-0.6,0
		c-0.2-0.3-0.6-0.4-0.9-0.4c-0.6,0-1.2,0.6-1.7,1.8v4c0,1.4,0.1,1.6,1.7,1.7v0.6h-4.9v-0.6c1.3-0.1,1.5-0.3,1.5-1.7v-4.5
		c0-1.4-0.1-1.5-1.3-1.7v-0.5c1-0.2,2-0.5,3-0.9L160.4,45L160.4,45z"/>
	<path class="st0" d="M172.4,50.6c-0.8,1.2-2,1.9-3.4,2.1c-2.6,0-4.1-2.2-4.1-4.6c0-1.4,0.5-2.7,1.4-3.8c0.8-0.9,1.9-1.5,3.1-1.6
		l0,0c1.7,0.1,3.1,1.5,3.1,3.3c0,0.4-0.1,0.6-0.5,0.7s-3,0.3-5.5,0.4c0,3,1.7,4.2,3.2,4.2c0.9,0,1.8-0.4,2.4-1.1L172.4,50.6z
		 M168.8,43.5c-1,0-1.9,0.9-2.2,2.7c1.2,0,2.4,0,3.6-0.1c0.4,0,0.5-0.1,0.5-0.4C170.8,44.6,170,43.6,168.8,43.5
		C168.9,43.5,168.8,43.5,168.8,43.5L168.8,43.5z"/>
	<path class="st0" d="M179.7,52.5v-0.6c1.2-0.1,1.4-0.3,1.4-1.8v-3.6c0-1.5-0.5-2.5-1.9-2.5c-0.9,0.1-1.7,0.5-2.3,1.1v5.1
		c0,1.5,0.1,1.6,1.4,1.7v0.6h-4.6v-0.6c1.4-0.2,1.5-0.3,1.5-1.7v-4.5c0-1.4-0.1-1.5-1.3-1.7v-0.5c1-0.2,2-0.5,2.9-0.9v1.7
		c0.4-0.3,0.9-0.7,1.4-1c0.5-0.4,1.1-0.6,1.8-0.7c1.7,0,2.7,1.2,2.7,3.3v4.2c0,1.5,0.1,1.6,1.4,1.7v0.6L179.7,52.5z"/>
	<path class="st0" d="M193.1,50.5c-0.8,1.2-2.1,2-3.6,2.2c-2.4,0-4.3-2-4.3-4.3c0-0.1,0-0.1,0-0.2c0-1.7,0.8-3.2,2.1-4.2
		c0.9-0.7,2-1.2,3.1-1.2l0,0c0.7,0,1.4,0.2,1.9,0.6c0.2,0.1,0.3,0.4,0.3,0.7c0,0.4-0.3,0.8-0.7,0.9c-0.1,0-0.2-0.1-0.4-0.2
		c-0.6-0.6-1.3-0.9-2.1-0.9c-1.4,0-2.6,1.2-2.6,3.5c0,3,2,4,3.2,4c1,0,1.9-0.4,2.6-1.2L193.1,50.5L193.1,50.5z"/>
	<path class="st0" d="M201.8,50.6c-0.8,1.2-2,1.9-3.4,2.1c-2.6,0-4.1-2.2-4.1-4.6c0-1.4,0.5-2.7,1.4-3.8c0.8-0.9,1.9-1.5,3.1-1.6
		l0,0c1.8,0.1,3.2,1.5,3.2,3.3c0,0.4-0.1,0.6-0.5,0.7s-3,0.3-5.5,0.4c0,3,1.7,4.2,3.2,4.2c0.9,0,1.8-0.4,2.4-1.1L201.8,50.6
		L201.8,50.6z M198.2,43.5c-1,0-1.9,0.9-2.2,2.7c1.2,0,2.4,0,3.6-0.1c0.4,0,0.5-0.1,0.5-0.4C200.2,44.6,199.4,43.6,198.2,43.5
		C198.3,43.5,198.3,43.5,198.2,43.5L198.2,43.5z"/>
	<g>
		<path class="st0" d="M223.8,50.8c0.3-0.1,0.6-0.1,1.6-0.1h0.3c0-1.9-0.2-6-0.3-7.2h-0.1c-0.4,0-1.2,0-1.5-0.1l0.4-1.8
			c0.6,0.1,1.9,0.1,3.1,0.1h3.3c2.9,0,3.5,0.7,3.5,4.1v6.8h-1.6v-6.2c0-2-0.2-2.9-2.1-2.9H227c0.1,1.3,0.3,5.9,0.3,7.3l-0.3,1.8
			h-1.6c-0.8,0-1.5,0-2,0.1L223.8,50.8z"/>
		<path class="st0" d="M238.8,46.2c0-1.7-0.2-2.3-1.8-2.7c-0.7-0.2-1.1-0.3-1.4-0.4l0.3-1.8c0.3,0.1,0.7,0.2,1.4,0.3
			c2.2,0.5,3,1.2,3,4.3v6.5h-1.6V46.2z"/>
		<path class="st0" d="M246.3,50.6c-0.7-2.2-2.7-6.8-4.2-9l2.1-0.2c1.1,1.9,2.8,6,3.5,8.7c1.5-0.6,2.3-1.9,2.3-4.4
			c0-1.1-0.3-2.8-0.8-4.1l2-0.2c0.2,0.7,0.5,2.1,0.5,3.8c0,2.9-0.7,5.2-4,6.7c-1.5,0.7-3.9,1.2-5.7,1.4l0.3-2
			C243.5,51.3,245.2,51,246.3,50.6z"/>
		<path class="st0" d="M254.4,47.7c0.8-1.3,1.3-2.3,1.3-3.1c0-0.7-0.4-0.9-1.3-1.1c-0.5-0.1-0.9-0.3-1.2-0.4l0.3-1.8
			c0.3,0.1,0.7,0.2,1.2,0.3c1.9,0.4,2.6,1,2.6,2.5c0,1.3-0.6,2.7-1.6,4.1L254.4,47.7z"/>
		<path class="st0" d="M258.8,50.8c0.6-0.1,2-0.1,3.2-0.1h3c0-1.4,0-3.3,0-4.3c0-2.1-0.3-3-2.2-3H261c-1.2,0-1.9,0-2.2-0.1l0.4-1.8
			c0.4,0.1,1.3,0.1,2.6,0.1h1.6c2.9,0,3.2,1.3,3.2,4.1v3.3c0,0.4,0,1.4-0.1,1.7h1.5l-0.3,1.8H261c-0.9,0-2.1,0-2.6,0.1L258.8,50.8z"
			/>
		<path class="st0" d="M269.3,50.8c0.3-0.1,0.6-0.1,1.6-0.1h0.3c0-1.9-0.2-6-0.3-7.2h-0.1c-0.4,0-1.2,0-1.5-0.1l0.4-1.8
			c0.6,0.1,1.9,0.1,3.1,0.1h3.3c2.9,0,3.5,0.7,3.5,4.1v6.8h-1.6v-6.2c0-2-0.2-2.9-2.1-2.9h-3.5c0.1,1.3,0.3,5.9,0.3,7.3l-0.3,1.8
			h-1.6c-0.8,0-1.5,0-2,0.1L269.3,50.8z"/>
		<path class="st0" d="M290,46.5c0-2.2-0.2-3.1-2.1-3.1h-3.4c-1.2,0-2,0-2.3-0.1l0.3-1.8c0.4,0.1,1.4,0.1,2.8,0.1h2.7
			c2.8,0,3.5,0.8,3.5,4.1v6.8H290V46.5z M282.6,46.7h1.6v5.7h-1.6V46.7z"/>
		<path class="st0" d="M298.2,50.8c0.3-0.1,0.6-0.1,1.6-0.1h0.3c0-1.9-0.2-6-0.3-7.2h-0.1c-0.4,0-1.2,0-1.5-0.1l0.4-1.8
			c0.6,0.1,1.9,0.1,3.1,0.1h3.3c2.9,0,3.5,0.7,3.5,4.1v6.8H307v-6.2c0-2-0.2-2.9-2.1-2.9h-3.5c0.1,1.3,0.3,5.9,0.3,7.3l-0.3,1.8
			h-1.6c-0.8,0-1.5,0-2,0.1L298.2,50.8z"/>
		<path class="st0" d="M309.9,43.3l0.3-1.8c0.4,0.1,1.4,0.1,2.8,0.1h5.9l-0.4,1.8h-0.8c-0.6,0-0.8,0.4-0.8,1.9
			c0,2.4,0.1,5.2,0.2,7.2h-1.6c0-1.3-0.1-4.7-0.1-6.8c0-1.4,0.2-1.8,0.4-2.2h-3.7C311,43.4,310.2,43.4,309.9,43.3z"/>
		<path class="st0" d="M321.6,47.7c0.8-1.3,1.3-2.3,1.3-3.1c0-0.7-0.4-0.9-1.3-1.1c-0.5-0.1-0.9-0.3-1.2-0.4l0.3-1.8
			c0.3,0.1,0.7,0.2,1.2,0.3c1.9,0.4,2.6,1,2.6,2.5c0,1.3-0.6,2.7-1.6,4.1L321.6,47.7z"/>
		<path class="st0" d="M329.8,50.6c-0.7-2.2-2.7-6.8-4.2-9l2.1-0.2c1.1,1.9,2.8,6,3.5,8.7c1.5-0.6,2.3-1.9,2.3-4.4
			c0-1.1-0.3-2.8-0.8-4.1l2-0.2c0.2,0.7,0.5,2.1,0.5,3.8c0,2.9-0.7,5.2-4,6.7c-1.5,0.7-3.9,1.2-5.7,1.4l0.3-2
			C327.1,51.3,328.8,51,329.8,50.6z"/>
		<path class="st0" d="M339.8,46.2c0-1.7-0.2-2.3-1.8-2.7c-0.7-0.2-1.1-0.3-1.4-0.4l0.3-1.8c0.3,0.1,0.7,0.2,1.4,0.3
			c2.2,0.5,3,1.2,3,4.3v6.5h-1.6V46.2z"/>
	</g>
	<g>
		<path class="st0" d="M49.9,67.1c-0.2,0.6-0.5,1.6-0.7,2c-0.4,0.1-1.4,0.3-2.4,0.3c-3.2,0-4.7-2.1-4.7-4.3c0-2.7,2-4.5,5-4.5
			c1.1,0,2,0.2,2.5,0.3c0.1,0.6,0.1,1.4,0.2,2L49.3,63c-0.3-0.9-0.6-1.4-1.3-1.7c-0.3-0.2-0.9-0.2-1.3-0.2c-2.1,0-3.2,1.6-3.2,3.7
			c0,2.5,1.3,4.1,3.3,4.1c1.3,0,1.9-0.6,2.6-1.9L49.9,67.1z"/>
		<path class="st0" d="M54,63.3c1.7,0,2.9,1.3,2.9,2.9c0,2.1-1.6,3.1-2.9,3.1c-1.8,0-2.9-1.5-2.9-2.9C51.1,64.3,52.7,63.3,54,63.3z
			 M53.8,63.8c-0.8,0-1.4,0.7-1.4,2.3c0,1.6,0.7,2.8,1.7,2.8c0.8,0,1.4-0.5,1.4-2.3C55.5,64.9,54.9,63.8,53.8,63.8z"/>
		<path class="st0" d="M61.5,69.2v-0.4c0.7-0.1,0.8-0.2,0.8-1v-2.2c0-0.9-0.3-1.5-1.1-1.5c-0.5,0-1,0.3-1.4,0.6v3.1
			c0,0.9,0.1,0.9,0.8,1v0.4h-2.8v-0.4c0.8-0.1,0.9-0.1,0.9-1v-2.7c0-0.8-0.1-0.9-0.8-1v-0.4c0.7-0.1,1.3-0.3,1.9-0.5
			c0,0.3,0,0.7,0,1c0.3-0.2,0.5-0.4,0.9-0.6c0.4-0.2,0.7-0.4,1.1-0.4c1,0,1.7,0.8,1.7,2v2.5c0,0.9,0.1,0.9,0.8,1v0.4H61.5z"/>
		<path class="st0" d="M65.9,63.5v-0.3c0-0.9,0.4-1.9,1.2-2.6c0.5-0.4,1-0.6,1.5-0.7c0.5,0,0.9,0.2,1.1,0.4c0.1,0.1,0.2,0.3,0.1,0.5
			c0,0.1-0.2,0.3-0.3,0.4c-0.2,0.1-0.3,0.1-0.4,0c-0.3-0.2-0.6-0.6-1.1-0.6c-0.9,0-0.9,1.1-0.9,2.3v0.6h1.3c0.1,0.1,0,0.5-0.1,0.6
			H67v3.7c0,0.9,0.1,0.9,1.1,1v0.4H65v-0.4c0.8-0.1,0.9-0.1,0.9-1V64h-0.9l-0.1-0.1l0.3-0.4H65.9z"/>
		<path class="st0" d="M73.6,68c-0.8,1.1-1.8,1.3-2.2,1.3c-1.6,0-2.6-1.3-2.6-2.8c0-0.9,0.3-1.7,0.9-2.3c0.6-0.6,1.3-0.9,2-0.9
			c1.2,0,2,1,2,2c0,0.3,0,0.4-0.2,0.4c-0.3,0.1-2,0.2-3.4,0.2c0,1.7,1,2.4,1.9,2.4c0.5,0,1-0.2,1.5-0.6L73.6,68z M71.4,63.8
			c-0.6,0-1.1,0.6-1.3,1.6c0.7,0,1.4,0,2.1,0c0.2,0,0.3-0.1,0.3-0.3C72.5,64.4,72,63.8,71.4,63.8z"/>
		<path class="st0" d="M77.6,69.2h-3.1v-0.4c0.8-0.1,0.9-0.1,0.9-1v-2.7c0-0.8-0.1-0.9-0.8-1v-0.3c0.7-0.1,1.3-0.3,1.9-0.5
			c0,0.4,0,1,0,1.4c0.5-0.7,1-1.4,1.6-1.4c0.5,0,0.8,0.3,0.8,0.7c0,0.4-0.3,0.7-0.5,0.8c-0.1,0.1-0.2,0.1-0.3,0
			c-0.2-0.2-0.4-0.3-0.6-0.3c-0.3,0-0.7,0.4-1,1v2.4c0,0.8,0.1,0.9,1.1,1V69.2z"/>
		<path class="st0" d="M84.3,68c-0.8,1.1-1.8,1.3-2.2,1.3c-1.6,0-2.6-1.3-2.6-2.8c0-0.9,0.3-1.7,0.9-2.3c0.6-0.6,1.3-0.9,2-0.9
			c1.2,0,2,1,2,2c0,0.3,0,0.4-0.2,0.4c-0.3,0.1-2,0.2-3.4,0.2c0,1.7,1,2.4,1.9,2.4c0.5,0,1-0.2,1.5-0.6L84.3,68z M82,63.8
			c-0.6,0-1.1,0.6-1.3,1.6c0.7,0,1.4,0,2.1,0c0.2,0,0.3-0.1,0.3-0.3C83.1,64.4,82.7,63.8,82,63.8z"/>
		<path class="st0" d="M88.9,69.2v-0.4c0.7-0.1,0.8-0.2,0.8-1v-2.2c0-0.9-0.3-1.5-1.1-1.5c-0.5,0-1,0.3-1.4,0.6v3.1
			c0,0.9,0.1,0.9,0.8,1v0.4h-2.8v-0.4c0.8-0.1,0.9-0.1,0.9-1v-2.7c0-0.8-0.1-0.9-0.8-1v-0.4c0.7-0.1,1.3-0.3,1.9-0.5
			c0,0.3,0,0.7,0,1c0.3-0.2,0.5-0.4,0.9-0.6c0.4-0.2,0.7-0.4,1.1-0.4c1,0,1.7,0.8,1.7,2v2.5c0,0.9,0.1,0.9,0.8,1v0.4H88.9z"/>
		<path class="st0" d="M97.5,68c-0.6,0.8-1.4,1.3-2.2,1.3c-1.7,0-2.7-1.3-2.7-2.7c0-1,0.5-1.9,1.3-2.5c0.7-0.6,1.5-0.8,2-0.8
			c0.6,0,1,0.2,1.2,0.3c0.2,0.1,0.2,0.2,0.2,0.4c0,0.3-0.3,0.6-0.5,0.6c-0.1,0-0.1,0-0.3-0.1c-0.4-0.4-0.9-0.6-1.3-0.6
			c-0.8,0-1.5,0.7-1.5,2c0,1.8,1.2,2.4,1.9,2.4c0.5,0,1-0.1,1.6-0.7L97.5,68z"/>
		<path class="st0" d="M103.1,68c-0.8,1.1-1.8,1.3-2.2,1.3c-1.6,0-2.6-1.3-2.6-2.8c0-0.9,0.3-1.7,0.9-2.3c0.6-0.6,1.3-0.9,2-0.9
			c1.2,0,2,1,2,2c0,0.3,0,0.4-0.2,0.4c-0.3,0.1-2,0.2-3.4,0.2c0,1.7,1,2.4,1.9,2.4c0.5,0,1-0.2,1.5-0.6L103.1,68z M100.9,63.8
			c-0.6,0-1.1,0.6-1.3,1.6c0.7,0,1.4,0,2.1,0c0.2,0,0.3-0.1,0.3-0.3C102,64.4,101.6,63.8,100.9,63.8z"/>
		<path class="st0" d="M109.9,63.3c1.7,0,2.9,1.3,2.9,2.9c0,2.1-1.6,3.1-2.9,3.1c-1.8,0-2.9-1.5-2.9-2.9
			C107,64.3,108.7,63.3,109.9,63.3z M109.8,63.8c-0.8,0-1.4,0.7-1.4,2.3c0,1.6,0.7,2.8,1.7,2.8c0.8,0,1.4-0.5,1.4-2.3
			C111.5,64.9,110.9,63.8,109.8,63.8z"/>
		<path class="st0" d="M117.4,69.2v-0.4c0.7-0.1,0.8-0.2,0.8-1v-2.2c0-0.9-0.3-1.5-1.1-1.5c-0.5,0-1,0.3-1.4,0.6v3.1
			c0,0.9,0.1,0.9,0.8,1v0.4h-2.8v-0.4c0.8-0.1,0.9-0.1,0.9-1v-2.7c0-0.8-0.1-0.9-0.8-1v-0.4c0.7-0.1,1.3-0.3,1.9-0.5
			c0,0.3,0,0.7,0,1c0.3-0.2,0.5-0.4,0.9-0.6c0.4-0.2,0.7-0.4,1.1-0.4c1,0,1.7,0.8,1.7,2v2.5c0,0.9,0.1,0.9,0.8,1v0.4H117.4z"/>
		<path class="st0" d="M127.6,61.1c-1,0.1-1.1,0.2-1.1,1.3v4.7c0,1.7-0.2,2.6-1.2,3.5c-0.4,0.4-0.9,0.6-1.3,0.8l-0.2-0.4
			c0.7-0.4,1.1-0.9,1.3-1.7c0.1-0.6,0.1-1.4,0.1-2.5v-4.4c0-1.1-0.1-1.2-1.2-1.3v-0.4h3.5V61.1z"/>
		<path class="st0" d="M133,68c-0.8,1.1-1.8,1.3-2.2,1.3c-1.6,0-2.6-1.3-2.6-2.8c0-0.9,0.3-1.7,0.9-2.3c0.6-0.6,1.3-0.9,2-0.9
			c1.2,0,2,1,2,2c0,0.3,0,0.4-0.2,0.4c-0.3,0.1-2,0.2-3.4,0.2c0,1.7,1,2.4,1.9,2.4c0.5,0,1-0.2,1.5-0.6L133,68z M130.7,63.8
			c-0.6,0-1.1,0.6-1.3,1.6c0.7,0,1.4,0,2.1,0c0.2,0,0.3-0.1,0.3-0.3C131.8,64.4,131.4,63.8,130.7,63.8z"/>
		<path class="st0" d="M142.8,63.8c-0.7,0.1-0.8,0.2-1,1c-0.4,1-1,2.8-1.6,4.5h-0.4c-0.5-1.4-1-2.7-1.6-4c-0.5,1.2-1,2.6-1.6,4h-0.4
			c-0.5-1.6-1-3.1-1.5-4.6c-0.2-0.7-0.3-0.8-1-0.8v-0.4h2.8v0.4c-0.8,0.1-0.8,0.2-0.7,0.8c0.3,1,0.6,2,0.9,2.9c0.5-1.3,1-2.6,1.5-4
			h0.4c0.5,1.3,1,2.7,1.5,4.1c0.3-0.8,0.7-2,0.9-2.9c0.2-0.6,0-0.7-0.8-0.8v-0.4h2.5V63.8z"/>
		<path class="st0" d="M143.4,69.2v-0.4c0.8-0.1,0.9-0.1,0.9-1v-2.7c0-0.8,0-0.9-0.8-1v-0.3c0.7-0.1,1.4-0.3,1.9-0.5
			c0,0.5,0,1.1,0,1.6v2.9c0,0.9,0.1,1,0.9,1v0.4H143.4z M144.7,62.1c-0.4,0-0.7-0.3-0.7-0.7c0-0.4,0.3-0.8,0.7-0.8
			c0.4,0,0.7,0.3,0.7,0.8C145.5,61.7,145.1,62.1,144.7,62.1z"/>
		<path class="st0" d="M150.5,65c-0.3-0.8-0.6-1.3-1.4-1.3c-0.4,0-0.8,0.3-0.8,0.8c0,0.5,0.4,0.8,1.1,1.1c1.1,0.5,1.7,0.9,1.7,1.8
			c0,1.2-1.1,1.8-2.2,1.8c-0.7,0-1.3-0.2-1.6-0.4c-0.1-0.4-0.2-1.1-0.2-1.5l0.4-0.1c0.2,0.8,0.7,1.5,1.6,1.5c0.5,0,0.9-0.3,0.9-0.8
			c0-0.6-0.3-0.9-1-1.2c-0.9-0.4-1.7-0.9-1.7-1.8c0-1,0.8-1.7,2.1-1.7c0.6,0,1,0.1,1.3,0.2c0,0.3,0.1,1.1,0.2,1.5L150.5,65z"/>
		<path class="st0" d="M155.5,69.2v-0.4c0.7-0.1,0.8-0.2,0.8-1v-2.2c0-1.1-0.4-1.6-1.2-1.6c-0.5,0-0.9,0.2-1.3,0.6v3.1
			c0,0.8,0.1,0.9,0.8,1v0.4h-2.9v-0.4c0.7-0.1,0.9-0.1,0.9-1v-6.2c0-0.7,0-0.8-0.9-0.9v-0.4c0.7-0.1,1.5-0.3,2-0.4
			c0,0.5,0,1.1,0,1.6v2.8c0.5-0.5,1.2-0.9,1.9-0.9c1.1,0,1.8,0.7,1.8,2.2v2.3c0,0.9,0.1,0.9,0.8,1v0.4H155.5z"/>
		<path class="st0" d="M169.3,69.2v-0.4c1.1-0.1,1.1-0.2,1.1-1.5l0-5.3c-1,2.4-2.6,5.8-3.2,7.2h-0.4c-0.5-1.4-1.9-4.7-2.9-7.1
			c-0.2,4.5-0.2,5.5-0.2,5.7c0,0.7,0.3,0.8,1.2,0.9v0.4h-3.1v-0.4c0.8-0.1,1.1-0.2,1.2-0.9c0.1-0.5,0.1-1.1,0.4-5.7
			c0-0.7-0.1-0.9-1.2-1v-0.4h2.4l2.8,6.4l3-6.4h2.4v0.4c-1.1,0.1-1.2,0.2-1.2,1.2l0.1,5c0,1.4,0.1,1.4,1.2,1.5v0.4H169.3z"/>
		<path class="st0" d="M177.9,69.3c-0.2,0-0.5-0.1-0.6-0.3c-0.2-0.2-0.3-0.3-0.3-0.6c-0.5,0.3-1.2,0.8-1.5,0.8c-1,0-1.6-0.8-1.6-1.6
			c0-0.6,0.3-1,1.1-1.3c0.8-0.3,1.8-0.6,2.1-0.8v-0.3c0-0.9-0.4-1.4-1.1-1.4c-0.3,0-0.5,0.1-0.6,0.3c-0.1,0.2-0.2,0.5-0.3,0.8
			c-0.1,0.2-0.2,0.3-0.4,0.3c-0.3,0-0.6-0.3-0.6-0.6c0-0.2,0.2-0.3,0.4-0.5c0.4-0.3,1.2-0.8,1.9-0.9c0.4,0,0.8,0.1,1.1,0.4
			c0.5,0.4,0.7,0.9,0.7,1.5v2.5c0,0.6,0.2,0.8,0.4,0.8c0.2,0,0.3-0.1,0.5-0.1l0.1,0.4L177.9,69.3z M176.9,66
			c-0.3,0.1-0.8,0.4-1.1,0.5c-0.5,0.2-0.8,0.5-0.8,0.9c0,0.7,0.5,1,0.9,1c0.3,0,0.7-0.2,1-0.4C176.9,67.5,176.9,66.7,176.9,66z"/>
		<path class="st0" d="M182.1,69.2c-0.2,0.1-0.4,0.2-0.6,0.2c-0.9,0-1.3-0.5-1.3-1.6V64h-0.9l-0.1-0.2l0.4-0.4h0.6v-1.1
			c0.3-0.3,0.7-0.6,1-0.9l0.2,0c0,0.5,0,1.3,0,1.9h1.4c0.1,0.1,0.1,0.4-0.1,0.6h-1.4v3.3c0,1,0.4,1.2,0.7,1.2c0.3,0,0.6-0.1,0.8-0.2
			l0.1,0.4L182.1,69.2z"/>
		<path class="st0" d="M188.3,68c-0.8,1.1-1.8,1.3-2.2,1.3c-1.6,0-2.6-1.3-2.6-2.8c0-0.9,0.3-1.7,0.9-2.3c0.6-0.6,1.3-0.9,2-0.9
			c1.2,0,2,1,2,2c0,0.3,0,0.4-0.2,0.4c-0.3,0.1-2,0.2-3.4,0.2c0,1.7,1,2.4,1.9,2.4c0.5,0,1-0.2,1.5-0.6L188.3,68z M186,63.8
			c-0.6,0-1.1,0.6-1.3,1.6c0.7,0,1.4,0,2.1,0c0.2,0,0.3-0.1,0.3-0.3C187.1,64.4,186.7,63.8,186,63.8z"/>
		<path class="st0" d="M192.3,69.2h-3.1v-0.4c0.8-0.1,0.9-0.1,0.9-1v-2.7c0-0.8-0.1-0.9-0.8-1v-0.3c0.7-0.1,1.3-0.3,1.9-0.5
			c0,0.4,0,1,0,1.4c0.5-0.7,1-1.4,1.6-1.4c0.5,0,0.8,0.3,0.8,0.7c0,0.4-0.3,0.7-0.5,0.8c-0.1,0.1-0.2,0.1-0.3,0
			c-0.2-0.2-0.4-0.3-0.6-0.3c-0.3,0-0.7,0.4-1,1v2.4c0,0.8,0.1,0.9,1.1,1V69.2z"/>
		<path class="st0" d="M194.2,69.2v-0.4c0.8-0.1,0.9-0.1,0.9-1v-2.7c0-0.8,0-0.9-0.8-1v-0.3c0.7-0.1,1.4-0.3,1.9-0.5
			c0,0.5,0,1.1,0,1.6v2.9c0,0.9,0.1,1,0.9,1v0.4H194.2z M195.6,62.1c-0.4,0-0.7-0.3-0.7-0.7c0-0.4,0.3-0.8,0.7-0.8
			c0.4,0,0.7,0.3,0.7,0.8C196.4,61.7,196,62.1,195.6,62.1z"/>
		<path class="st0" d="M202.2,69.3c-0.2,0-0.5-0.1-0.6-0.3c-0.2-0.2-0.3-0.3-0.3-0.6c-0.5,0.3-1.2,0.8-1.5,0.8c-1,0-1.6-0.8-1.6-1.6
			c0-0.6,0.3-1,1.1-1.3c0.8-0.3,1.8-0.6,2.1-0.8v-0.3c0-0.9-0.4-1.4-1.1-1.4c-0.3,0-0.5,0.1-0.6,0.3c-0.1,0.2-0.2,0.5-0.3,0.8
			c-0.1,0.2-0.2,0.3-0.4,0.3c-0.3,0-0.6-0.3-0.6-0.6c0-0.2,0.2-0.3,0.4-0.5c0.4-0.3,1.2-0.8,1.9-0.9c0.4,0,0.8,0.1,1.1,0.4
			c0.5,0.4,0.7,0.9,0.7,1.5v2.5c0,0.6,0.2,0.8,0.4,0.8c0.2,0,0.3-0.1,0.5-0.1l0.1,0.4L202.2,69.3z M201.2,66
			c-0.3,0.1-0.8,0.4-1.1,0.5c-0.5,0.2-0.8,0.5-0.8,0.9c0,0.7,0.5,1,0.9,1c0.3,0,0.7-0.2,1-0.4C201.2,67.5,201.2,66.7,201.2,66z"/>
		<path class="st0" d="M203.7,69.2v-0.4c0.8-0.1,0.9-0.2,0.9-1v-6.2c0-0.8-0.1-0.9-0.9-1v-0.4c0.7-0.1,1.6-0.3,2-0.4
			c0,0.6,0,1.2,0,1.8v6.1c0,0.9,0.1,0.9,0.9,1v0.4H203.7z"/>
		<path class="st0" d="M218.3,67.1c-0.2,0.6-0.5,1.6-0.7,2c-0.4,0.1-1.4,0.3-2.4,0.3c-3.2,0-4.7-2.1-4.7-4.3c0-2.7,2-4.5,5-4.5
			c1.1,0,2,0.2,2.5,0.3c0.1,0.6,0.1,1.4,0.2,2l-0.4,0.1c-0.3-0.9-0.6-1.4-1.3-1.7c-0.3-0.2-0.9-0.2-1.3-0.2c-2.1,0-3.2,1.6-3.2,3.7
			c0,2.5,1.3,4.1,3.3,4.1c1.3,0,1.9-0.6,2.6-1.9L218.3,67.1z"/>
		<path class="st0" d="M219.1,69.2v-0.4c0.8-0.1,0.9-0.2,0.9-1v-6.2c0-0.8-0.1-0.9-0.9-1v-0.4c0.7-0.1,1.6-0.3,2-0.4
			c0,0.6,0,1.2,0,1.8v6.1c0,0.9,0.1,0.9,0.9,1v0.4H219.1z"/>
		<path class="st0" d="M227.1,69.3c-0.2,0-0.5-0.1-0.6-0.3c-0.2-0.2-0.3-0.3-0.3-0.6c-0.5,0.3-1.2,0.8-1.5,0.8c-1,0-1.6-0.8-1.6-1.6
			c0-0.6,0.3-1,1.1-1.3c0.8-0.3,1.8-0.6,2.1-0.8v-0.3c0-0.9-0.4-1.4-1.1-1.4c-0.3,0-0.5,0.1-0.6,0.3c-0.1,0.2-0.2,0.5-0.3,0.8
			c-0.1,0.2-0.2,0.3-0.4,0.3c-0.3,0-0.6-0.3-0.6-0.6c0-0.2,0.2-0.3,0.4-0.5c0.4-0.3,1.2-0.8,1.9-0.9c0.4,0,0.8,0.1,1.1,0.4
			c0.5,0.4,0.7,0.9,0.7,1.5v2.5c0,0.6,0.2,0.8,0.4,0.8c0.2,0,0.3-0.1,0.5-0.1l0.1,0.4L227.1,69.3z M226.1,66
			c-0.3,0.1-0.8,0.4-1.1,0.5c-0.5,0.2-0.8,0.5-0.8,0.9c0,0.7,0.5,1,0.9,1c0.3,0,0.7-0.2,1-0.4C226.1,67.5,226.1,66.7,226.1,66z"/>
		<path class="st0" d="M228.7,69.2v-0.4c0.8-0.1,0.9-0.1,0.9-1v-2.7c0-0.8,0-0.9-0.8-1v-0.3c0.7-0.1,1.4-0.3,1.9-0.5
			c0,0.5,0,1.1,0,1.6v2.9c0,0.9,0.1,1,0.9,1v0.4H228.7z M230.1,62.1c-0.4,0-0.7-0.3-0.7-0.7c0-0.4,0.3-0.8,0.7-0.8
			c0.4,0,0.7,0.3,0.7,0.8C230.8,61.7,230.5,62.1,230.1,62.1z"/>
		<path class="st0" d="M239.5,69.2v-0.4c0.7-0.1,0.8-0.1,0.8-1v-2.2c0-1-0.3-1.5-1.1-1.5c-0.5,0-0.9,0.2-1.4,0.6c0,0.2,0,0.3,0,0.6
			v2.5c0,0.8,0.1,0.9,0.8,0.9v0.4h-2.8v-0.4c0.8-0.1,0.9-0.1,0.9-1v-2.3c0-1-0.3-1.4-1-1.4c-0.5,0-1,0.3-1.4,0.6v3.1
			c0,0.8,0.1,0.9,0.8,1v0.4h-2.8v-0.4c0.8-0.1,0.9-0.1,0.9-1v-2.7c0-0.8,0-0.9-0.8-1v-0.3c0.6-0.1,1.3-0.3,1.9-0.5c0,0.3,0,0.7,0,1
			c0.3-0.2,0.5-0.4,0.9-0.7c0.3-0.2,0.6-0.3,1-0.3c0.6,0,1.2,0.4,1.4,1.1c0.4-0.3,0.7-0.5,1-0.7c0.3-0.2,0.7-0.3,1-0.3
			c1,0,1.7,0.7,1.7,2v2.5c0,0.8,0.1,0.9,0.8,1v0.4H239.5z"/>
		<path class="st0" d="M246.4,65c-0.3-0.8-0.6-1.3-1.4-1.3c-0.4,0-0.8,0.3-0.8,0.8c0,0.5,0.4,0.8,1.1,1.1c1.1,0.5,1.7,0.9,1.7,1.8
			c0,1.2-1.1,1.8-2.2,1.8c-0.7,0-1.3-0.2-1.6-0.4c-0.1-0.4-0.2-1.1-0.2-1.5l0.4-0.1c0.2,0.8,0.7,1.5,1.6,1.5c0.5,0,0.9-0.3,0.9-0.8
			c0-0.6-0.3-0.9-1-1.2c-0.9-0.4-1.7-0.9-1.7-1.8c0-1,0.8-1.7,2.1-1.7c0.6,0,1,0.1,1.3,0.2c0,0.3,0.1,1.1,0.2,1.5L246.4,65z"/>
		<path class="st0" d="M255.4,69.2v-0.4c0.8-0.1,0.9-0.2,0.7-0.7c-0.2-0.5-0.4-1.1-0.7-1.9h-2.8c-0.2,0.6-0.4,1.1-0.6,1.6
			c-0.3,0.8-0.1,0.9,1,1.1v0.4h-3v-0.4c0.8-0.1,1-0.2,1.5-1.4l2.7-6.8l0.5-0.1c0.8,2.2,1.7,4.7,2.5,6.9c0.4,1.1,0.5,1.2,1.5,1.4v0.4
			H255.4z M254.1,62.4c-0.4,1.1-0.8,2.2-1.2,3.2h2.4L254.1,62.4z"/>
		<path class="st0" d="M261.2,67.2c-0.3,0.2-0.4,0.5-0.4,0.6c0,0.2,0.2,0.5,0.8,0.5c0.5,0,1,0,1.5,0c0.8,0,1.9,0.3,1.9,1.6
			c0,1.4-1.6,2.6-3.4,2.6c-1.5,0-2.3-0.9-2.3-1.6c0-0.3,0.1-0.5,0.3-0.7c0.3-0.3,0.8-0.7,1-0.9c-0.5-0.1-0.8-0.4-1-0.7
			c-0.1-0.2-0.2-0.4-0.2-0.6c0.5-0.2,1-0.6,1.2-0.9L261.2,67.2z M261.8,67.4c-1.3,0-2.3-0.8-2.3-2c0-1.5,1.3-2.2,2.4-2.2
			c0.5,0,0.9,0.1,1.3,0.3c0.6,0,1.4-0.1,1.8-0.2l0.1,0.1c-0.1,0.2-0.3,0.6-0.5,0.7c-0.2,0-0.6-0.1-0.8-0.1c0.2,0.3,0.4,0.7,0.4,1.2
			C264.1,66.7,263,67.4,261.8,67.4z M262.1,69.3c-0.6,0-0.9,0.1-1.2,0.3c-0.3,0.3-0.6,0.6-0.6,1c0,0.7,0.7,1.2,1.7,1.2
			c1.2,0,1.9-0.6,1.9-1.4c0-0.4-0.2-0.8-0.6-0.9C263.1,69.4,262.6,69.3,262.1,69.3z M261.8,63.7c-0.6,0-1.1,0.5-1.1,1.5
			c0,1,0.5,1.7,1.2,1.7c0.6,0,1-0.5,1-1.5C263,64.4,262.5,63.7,261.8,63.7z"/>
		<path class="st0" d="M269.8,69.3c-0.2,0-0.5-0.1-0.6-0.3c-0.2-0.2-0.3-0.3-0.3-0.6c-0.5,0.3-1.2,0.8-1.5,0.8c-1,0-1.6-0.8-1.6-1.6
			c0-0.6,0.3-1,1.1-1.3c0.8-0.3,1.8-0.6,2.1-0.8v-0.3c0-0.9-0.4-1.4-1.1-1.4c-0.3,0-0.5,0.1-0.6,0.3c-0.1,0.2-0.2,0.5-0.3,0.8
			c-0.1,0.2-0.2,0.3-0.4,0.3c-0.3,0-0.6-0.3-0.6-0.6c0-0.2,0.2-0.3,0.4-0.5c0.4-0.3,1.2-0.8,1.9-0.9c0.4,0,0.8,0.1,1.1,0.4
			c0.5,0.4,0.7,0.9,0.7,1.5v2.5c0,0.6,0.2,0.8,0.4,0.8c0.2,0,0.3-0.1,0.5-0.1l0.1,0.4L269.8,69.3z M268.8,66
			c-0.3,0.1-0.8,0.4-1.1,0.5c-0.5,0.2-0.8,0.5-0.8,0.9c0,0.7,0.5,1,0.9,1c0.3,0,0.7-0.2,1-0.4C268.8,67.5,268.8,66.7,268.8,66z"/>
		<path class="st0" d="M271.5,69.2v-0.4c0.8-0.1,0.9-0.1,0.9-1v-2.7c0-0.8,0-0.9-0.8-1v-0.3c0.7-0.1,1.4-0.3,1.9-0.5
			c0,0.5,0,1.1,0,1.6v2.9c0,0.9,0.1,1,0.9,1v0.4H271.5z M272.9,62.1c-0.4,0-0.7-0.3-0.7-0.7c0-0.4,0.3-0.8,0.7-0.8
			c0.4,0,0.7,0.3,0.7,0.8C273.6,61.7,273.3,62.1,272.9,62.1z"/>
		<path class="st0" d="M278.8,69.2v-0.4c0.7-0.1,0.8-0.2,0.8-1v-2.2c0-0.9-0.3-1.5-1.1-1.5c-0.5,0-1,0.3-1.4,0.6v3.1
			c0,0.9,0.1,0.9,0.8,1v0.4h-2.8v-0.4c0.8-0.1,0.9-0.1,0.9-1v-2.7c0-0.8-0.1-0.9-0.8-1v-0.4c0.7-0.1,1.3-0.3,1.9-0.5
			c0,0.3,0,0.7,0,1c0.3-0.2,0.5-0.4,0.9-0.6c0.4-0.2,0.7-0.4,1.1-0.4c1,0,1.7,0.8,1.7,2v2.5c0,0.9,0.1,0.9,0.8,1v0.4H278.8z"/>
		<path class="st0" d="M285.8,65c-0.3-0.8-0.6-1.3-1.4-1.3c-0.4,0-0.8,0.3-0.8,0.8c0,0.5,0.4,0.8,1.1,1.1c1.1,0.5,1.7,0.9,1.7,1.8
			c0,1.2-1.1,1.8-2.2,1.8c-0.7,0-1.3-0.2-1.6-0.4c-0.1-0.4-0.2-1.1-0.2-1.5l0.4-0.1c0.2,0.8,0.7,1.5,1.6,1.5c0.5,0,0.9-0.3,0.9-0.8
			c0-0.6-0.3-0.9-1-1.2c-0.9-0.4-1.7-0.9-1.7-1.8c0-1,0.8-1.7,2.1-1.7c0.6,0,1,0.1,1.3,0.2c0,0.3,0.1,1.1,0.2,1.5L285.8,65z"/>
		<path class="st0" d="M289.8,69.2c-0.2,0.1-0.4,0.2-0.6,0.2c-0.9,0-1.3-0.5-1.3-1.6V64h-0.9l-0.1-0.2l0.4-0.4h0.6v-1.1
			c0.3-0.3,0.7-0.6,1-0.9l0.2,0c0,0.5,0,1.3,0,1.9h1.5c0.1,0.1,0.1,0.4-0.1,0.6h-1.4v3.3c0,1,0.4,1.2,0.7,1.2c0.3,0,0.6-0.1,0.8-0.2
			l0.1,0.4L289.8,69.2z"/>
		<path class="st0" d="M302.9,65.6c-0.8,0.1-0.9,0.2-0.9,1v1.1c0,0.5,0,0.9,0.1,1.2c-0.8,0.2-1.9,0.5-3,0.5c-3,0-4.8-1.8-4.8-4.4
			c0-2.8,2.3-4.4,4.9-4.4c1.3,0,2.3,0.3,2.7,0.3c0,0.5,0.1,1.3,0.2,2.1l-0.4,0.1c-0.3-1.1-0.7-1.6-1.5-1.9c-0.3-0.1-0.8-0.2-1.2-0.2
			c-1.9,0-3.2,1.4-3.2,3.7c0,2.1,1,4.1,3.5,4.1c0.4,0,0.8-0.1,1.1-0.2c0.3-0.1,0.4-0.3,0.4-0.8v-1.1c0-0.9-0.1-1-1.3-1.1v-0.4h3.4
			V65.6z"/>
		<path class="st0" d="M308.9,68c-0.8,1.1-1.8,1.3-2.2,1.3c-1.6,0-2.6-1.3-2.6-2.8c0-0.9,0.3-1.7,0.9-2.3c0.6-0.6,1.3-0.9,2-0.9
			c1.2,0,2,1,2,2c0,0.3,0,0.4-0.2,0.4c-0.3,0.1-2,0.2-3.4,0.2c0,1.7,1,2.4,1.9,2.4c0.5,0,1-0.2,1.5-0.6L308.9,68z M306.6,63.8
			c-0.6,0-1.1,0.6-1.3,1.6c0.7,0,1.4,0,2.1,0c0.2,0,0.3-0.1,0.3-0.3C307.7,64.4,307.3,63.8,306.6,63.8z"/>
		<path class="st0" d="M312.8,69.2h-3.1v-0.4c0.8-0.1,0.9-0.1,0.9-1v-2.7c0-0.8-0.1-0.9-0.8-1v-0.3c0.7-0.1,1.3-0.3,1.9-0.5
			c0,0.4,0,1,0,1.4c0.5-0.7,1-1.4,1.6-1.4c0.5,0,0.8,0.3,0.8,0.7c0,0.4-0.3,0.7-0.5,0.8c-0.1,0.1-0.2,0.1-0.3,0
			c-0.2-0.2-0.4-0.3-0.6-0.3c-0.3,0-0.7,0.4-1,1v2.4c0,0.8,0.1,0.9,1.1,1V69.2z"/>
		<path class="st0" d="M322,69.2v-0.4c0.7-0.1,0.8-0.1,0.8-1v-2.2c0-1-0.3-1.5-1.1-1.5c-0.5,0-0.9,0.2-1.4,0.6c0,0.2,0,0.3,0,0.6
			v2.5c0,0.8,0.1,0.9,0.8,0.9v0.4h-2.8v-0.4c0.8-0.1,0.9-0.1,0.9-1v-2.3c0-1-0.3-1.4-1-1.4c-0.5,0-1,0.3-1.4,0.6v3.1
			c0,0.8,0.1,0.9,0.8,1v0.4h-2.8v-0.4c0.8-0.1,0.9-0.1,0.9-1v-2.7c0-0.8,0-0.9-0.8-1v-0.3c0.6-0.1,1.3-0.3,1.9-0.5c0,0.3,0,0.7,0,1
			c0.3-0.2,0.5-0.4,0.9-0.7c0.3-0.2,0.6-0.3,1-0.3c0.6,0,1.2,0.4,1.4,1.1c0.4-0.3,0.7-0.5,1-0.7c0.3-0.2,0.7-0.3,1-0.3
			c1,0,1.7,0.7,1.7,2v2.5c0,0.8,0.1,0.9,0.8,1v0.4H322z"/>
		<path class="st0" d="M329.8,69.3c-0.2,0-0.5-0.1-0.6-0.3c-0.2-0.2-0.3-0.3-0.3-0.6c-0.5,0.3-1.2,0.8-1.5,0.8c-1,0-1.6-0.8-1.6-1.6
			c0-0.6,0.3-1,1.1-1.3c0.8-0.3,1.8-0.6,2.1-0.8v-0.3c0-0.9-0.4-1.4-1.1-1.4c-0.3,0-0.5,0.1-0.6,0.3c-0.1,0.2-0.2,0.5-0.3,0.8
			c-0.1,0.2-0.2,0.3-0.4,0.3c-0.3,0-0.6-0.3-0.6-0.6c0-0.2,0.2-0.3,0.4-0.5c0.4-0.3,1.2-0.8,1.9-0.9c0.4,0,0.8,0.1,1.1,0.4
			c0.5,0.4,0.7,0.9,0.7,1.5v2.5c0,0.6,0.2,0.8,0.4,0.8c0.2,0,0.3-0.1,0.5-0.1l0.1,0.4L329.8,69.3z M328.8,66
			c-0.3,0.1-0.8,0.4-1.1,0.5c-0.5,0.2-0.8,0.5-0.8,0.9c0,0.7,0.5,1,0.9,1c0.3,0,0.7-0.2,1-0.4C328.8,67.5,328.8,66.7,328.8,66z"/>
		<path class="st0" d="M335.2,69.2v-0.4c0.7-0.1,0.8-0.2,0.8-1v-2.2c0-0.9-0.3-1.5-1.1-1.5c-0.5,0-1,0.3-1.4,0.6v3.1
			c0,0.9,0.1,0.9,0.8,1v0.4h-2.8v-0.4c0.8-0.1,0.9-0.1,0.9-1v-2.7c0-0.8-0.1-0.9-0.8-1v-0.4c0.7-0.1,1.3-0.3,1.9-0.5
			c0,0.3,0,0.7,0,1c0.3-0.2,0.5-0.4,0.9-0.6c0.4-0.2,0.7-0.4,1.1-0.4c1,0,1.7,0.8,1.7,2v2.5c0,0.9,0.1,0.9,0.8,1v0.4H335.2z"/>
		<path class="st0" d="M344.4,63.8c-0.7,0.1-0.8,0.2-1.1,0.9c-0.3,0.7-0.7,1.6-1.5,3.8c-0.9,2.1-1.1,2.9-1.3,3.6
			c-0.1,0.3-0.2,0.3-0.4,0.3c-0.4,0-0.8-0.3-0.8-0.7c0-0.2,0.1-0.3,0.3-0.5c0.4-0.3,0.7-0.6,0.9-1c0.2-0.5,0.4-0.9,0.5-1.1
			c0.1-0.2,0-0.3,0-0.5c-0.5-1.6-1.3-3.2-1.6-4c-0.3-0.7-0.4-0.8-1.1-0.9v-0.4h2.7v0.4c-0.6,0.1-0.7,0.2-0.5,0.7l1.2,3.1
			c0.4-0.9,0.9-2.3,1.1-3.1c0.2-0.5,0-0.6-0.7-0.7v-0.4h2.4V63.8z"/>
	</g>
</g>
<g id="Layer_2">
	<g>
		<g>
			<polygon class="st1" points="8.8,54.7 15.1,66.2 24.3,66.2 30.5,54.7 26.3,42.5 13.1,42.5 			"/>
			<polygon class="st0" points="21,22.2 19.7,17.3 18.4,22.2 13.1,42.5 26.3,42.5 			"/>
			<polygon class="st0" points="4.8,66.2 15.1,66.2 8.8,54.7 			"/>
			<polygon class="st0" points="34.6,66.2 30.5,54.7 24.3,66.2 			"/>
			<polygon class="st0" points="2.2,42.5 8.8,54.7 13.1,42.5 			"/>
			<polygon class="st0" points="19.7,74.6 24.3,66.2 15.1,66.2 			"/>
			<polygon class="st0" points="37.2,42.5 26.3,42.5 30.5,54.7 			"/>
		</g>
		<g>
			<path class="st2" d="M19.7,2.8l-3.9,9.8c-1,3.5,1.1,7.1,3.9,7.1h0c2.9,0,4.9-3.7,3.9-7.1L19.7,2.8z"/>
		</g>
	</g>
</g>
</svg>
